<?xml version="1.0" encoding="UTF-8" standalone="no"?>
<!DOCTYPE svg PUBLIC "-//W3C//DTD SVG 1.1//EN" "http://www.w3.org/Graphics/SVG/1.1/DTD/svg11.dtd">
<svg width="100%" height="100%" viewBox="0 0 492 124" version="1.1" xmlns="http://www.w3.org/2000/svg" xmlns:xlink="http://www.w3.org/1999/xlink" xml:space="preserve" xmlns:serif="http://www.serif.com/" style="fill-rule:evenodd;clip-rule:evenodd;stroke-linejoin:round;stroke-miterlimit:2;">
    <g transform="matrix(1.03448,0,0,1.08529,-12.0988,-7.0672)">
        <rect x="11.696" y="6.512" width="5.333" height="113.333" style="fill:rgb(22,22,22);"/>
        <g transform="matrix(1,0,0,1,10,0)">
            <rect x="11.696" y="6.512" width="5.333" height="113.333" style="fill:rgb(22,22,22);"/>
        </g>
        <g transform="matrix(2.8125,0,0,1,8.80186,0)">
            <rect x="11.696" y="6.512" width="5.333" height="113.333" style="fill:rgb(22,22,22);"/>
        </g>
        <g transform="matrix(1.25,0,0,1,46.7428,0)">
            <rect x="11.696" y="6.512" width="5.333" height="113.333" style="fill:rgb(22,22,22);"/>
        </g>
        <g transform="matrix(1.25,0,0,1,75.7428,0)">
            <rect x="11.696" y="6.512" width="5.333" height="113.333" style="fill:rgb(22,22,22);"/>
        </g>
        <g transform="matrix(2.875,0,0,1,68.0709,0)">
            <rect x="11.696" y="6.512" width="5.333" height="113.333" style="fill:rgb(22,22,22);"/>
        </g>
        <g transform="matrix(1.25,0,0,1,145.743,0)">
            <rect x="11.696" y="6.512" width="5.333" height="113.333" style="fill:rgb(22,22,22);"/>
        </g>
        <g transform="matrix(0.875,0,0,1,161.129,0)">
            <rect x="11.696" y="6.512" width="5.333" height="113.333" style="fill:rgb(22,22,22);"/>
        </g>
        <g transform="matrix(1.0625,0,0,1,173.602,0)">
            <rect x="11.696" y="6.512" width="5.333" height="113.333" style="fill:rgb(22,22,22);"/>
        </g>
        <g transform="matrix(1.9375,0,0,1,184.035,0)">
            <rect x="11.696" y="6.512" width="5.333" height="113.333" style="fill:rgb(22,22,22);"/>
        </g>
        <g transform="matrix(1.9375,0,0,1,198.369,0)">
            <rect x="11.696" y="6.512" width="5.333" height="113.333" style="fill:rgb(22,22,22);"/>
        </g>
        <g transform="matrix(1.9375,0,0,1,223.702,0)">
            <rect x="11.696" y="6.512" width="5.333" height="113.333" style="fill:rgb(22,22,22);"/>
        </g>
        <g transform="matrix(1.0625,0,0,1,248.269,0)">
            <rect x="11.696" y="6.512" width="5.333" height="113.333" style="fill:rgb(22,22,22);"/>
        </g>
        <g transform="matrix(2.75,0,0,1,239.533,0)">
            <rect x="11.696" y="6.512" width="5.333" height="113.333" style="fill:rgb(22,22,22);"/>
        </g>
        <g transform="matrix(2.75,0,0,1,260.2,0)">
            <rect x="11.696" y="6.512" width="5.333" height="113.333" style="fill:rgb(22,22,22);"/>
        </g>
        <g transform="matrix(1.3125,0,0,1,305.012,0)">
            <rect x="11.696" y="6.512" width="5.333" height="113.333" style="fill:rgb(22,22,22);"/>
        </g>
        <g transform="matrix(6.5,0,0,1,255.675,0)">
            <rect x="11.696" y="6.512" width="5.333" height="113.333" style="fill:rgb(22,22,22);"/>
        </g>
        <g transform="matrix(2.625,0,0,1,351.661,0)">
            <rect x="11.696" y="6.512" width="5.333" height="113.333" style="fill:rgb(22,22,22);"/>
        </g>
        <g transform="matrix(2.875,0,0,1,372.071,0)">
            <rect x="11.696" y="6.512" width="5.333" height="113.333" style="fill:rgb(22,22,22);"/>
        </g>
        <g transform="matrix(1.125,0,0,1,423.538,0)">
            <rect x="11.696" y="6.512" width="5.333" height="113.333" style="fill:rgb(22,22,22);"/>
        </g>
        <g transform="matrix(1.125,0,0,1,437.538,0)">
            <rect x="11.696" y="6.512" width="5.333" height="113.333" style="fill:rgb(22,22,22);"/>
        </g>
        <g transform="matrix(2.6875,0,0,1,430.597,0)">
            <rect x="11.696" y="6.512" width="5.333" height="113.333" style="fill:rgb(22,22,22);"/>
        </g>
        <g transform="matrix(0.9375,0,0,1,471.064,0)">
            <rect x="11.696" y="6.512" width="5.333" height="113.333" style="fill:rgb(22,22,22);"/>
        </g>
    </g>
</svg>
